# xmcd CD database file
#
# Track frame offsets:
#	150
#	37632
#	63826
#	86515
#	116034
#	136791
#	163222
#	187683
#	214400
#
# Disc length: 3473 seconds
#
# Revision: 0
# Processed by: cddbd v1.5.2PL0 Copyright (c) Steve Scherf et al.
# Submitted via: CDex 1.51
#
DISCID=6f0d8f09
DTITLE=George Lesiw Band - Anuta was Here
DYEAR=2003
DGENRE=Jazz
TTITLE0=Lunar Isis
TTITLE1=Last Minute
TTITLE2=Laser Boy
TTITLE3=Blue Skeleton
TTITLE4=Lightmare
TTITLE5=In a Phrygian Mood
TTITLE6=Gone by the Woodbine
TTITLE7=Mishka's Magic
TTITLE8=Wayne
EXTD=YEAR: 2003
EXTT0=
EXTT1=
EXTT2=
EXTT3=
EXTT4=
EXTT5=
EXTT6=
EXTT7=
EXTT8=
PLAYORDER=
